<svg xmlns="http://www.w3.org/2000/svg" xmlns:xlink="http://www.w3.org/1999/xlink" id="sake-journey-logo" width="255.768" height="57.057" viewBox="0 0 255.768 57.057"><defs><clipPath id="lc1"><path d="M8.889,13.726c0,7.857,8.773,13.648,8.773,18.292,0,1.836-1.319,3.614-4.874,3.614C5.046,35.632,1.261,27.2.63,27.2c-.4,0-.63,2.868-.63,3.728,0,4.415,5.62,10.15,12.9,10.15,5.389,0,10.894-3.1,10.894-7.57,0-5.734-9-11.41-9-18.923,0-5.676,5.218-8.6,8.831-8.6a4.794,4.794,0,0,1,3.21,1.032,17.159,17.159,0,0,0-2.867,8.774c0,1.95.689,2.58,1.893,2.58,1.433,0,2.006-.86,3.555-2.637,3.5-3.957,4.53-5.276,4.53-7.111A3.847,3.847,0,0,0,32.4,5.469C30.966,1.913,27.3.537,23.74.537c-7.4,0-14.851,5.906-14.851,13.189" transform="translate(0 -0.537)" fill="currentColor"></path></clipPath><clipPath id="lc2"><path d="M41.044,35.117c0-2.179,5.791-9.4,7.455-9.4.286,0,.688.287.86.918a14.314,14.314,0,0,0-.974,1.376c-1.147,1.663-5.276,7.684-6.824,7.684a.5.5,0,0,1-.517-.573M82.392,31.16c1.605-3.727,5.791-7.4,6.824-7.4.4,0,.746.171.746.86a8.829,8.829,0,0,1-2.122,3.555c-1.376,1.605-2.867,3.326-4.186,3.326a2.318,2.318,0,0,1-1.262-.345M64.1,22.444c-1.564,2.54-2.98,4.891-4.222,7.029-2.474,2.316-6.893,6.562-9.313,6.562-.917,0-1.147-.976-1.147-1.549,0-1.95,2.925-5.62,5.217-8.659,1.491-2.007,1.892-2.579,1.892-3.153a1.781,1.781,0,0,0-1.834-1.663c-.689,0-1.319.4-2.351,1.606a2.741,2.741,0,0,0-2.352-1.777c-2.866,0-13.7,8.2-13.7,15.31,0,3.1,2.007,5.562,3.5,5.562,1.319,0,3.784-2.006,6.136-5.791,0,3.384,1.261,5.332,3.154,5.332,1.727,0,3.964-1.19,6.121-2.8a8.148,8.148,0,0,0-.73,2.683,1.732,1.732,0,0,0,1.893,1.95c1.09,0,1.548-.517,2.179-1.836,1.778-3.67,3.612-7.053,5.333-10.149a7.906,7.906,0,0,1,1.147-.745,20.954,20.954,0,0,0-.516,4.53c0,5.1,2.293,6.365,4.128,6.365,2.781,0,6.337-2.391,9.156-4.985.683,2.7,3.092,4.985,7.074,4.985,6.825,0,16.172-8.83,16.172-11.067,0-1.147-.573-2.179-1.032-2.179-.918,0-7.74,8.889-14.336,8.889-2.236,0-3.841-1.147-3.841-3.268a4.658,4.658,0,0,0,2.407.573c3.9,0,10.035-7.225,10.035-11.067a3.3,3.3,0,0,0-3.1-3.384c-3.914,0-10.3,5.284-12.665,10.839-2.523,2.348-6.028,5.447-8.095,5.447-1.721,0-2.237-1.721-2.237-4.3a27.36,27.36,0,0,1,.23-3.5,53.681,53.681,0,0,1,9.461-4.645,1.772,1.772,0,0,0,.631.114c.746,0,1.377-.86,1.377-2.809,0-1.032-.288-1.491-.919-1.491-2.293,0-7.34,3.039-11.869,6.022,5.562-9.577,9.691-15.484,9.691-16.688a1.576,1.576,0,0,0-1.318-1.605c-1.663,0-3.269,2.294-11.354,15.31" transform="translate(-36.285 -7.134)" fill="currentColor"></path></clipPath><clipPath id="lc3"><path d="M134.767,43.983c0-6.136,8.774-11.24,17.833-11.526a6.872,6.872,0,0,0,3.385,4.587c-4.7,5.678-10.61,9.92-17.548,9.92-2.179,0-3.671-.4-3.671-2.981m22.651-14.395c0-9.4,7.8-23.453,10.207-23.453.344,0,.517.345.517,1.491,0,5.218-3.442,16.8-9.692,26.092a6.374,6.374,0,0,1-1.032-4.13M169.231,0C163.438,0,152.2,16.973,152.2,29.99a14.474,14.474,0,0,0-4.531-.688c-9.806,0-17.719,7.856-17.719,15.2,0,4.587,3.154,8.257,9.576,8.257,8.658,0,16.229-6.709,21.963-15.253a15.763,15.763,0,0,0,3.784-1.319,26.072,26.072,0,0,1-2.7-.459c6.594-10.493,10.494-23.166,10.494-29.417C173.072,1.949,171.18,0,169.231,0Z" transform="translate(-129.95 0.001)" fill="currentColor"></path></clipPath><clipPath id="lc4"><path d="M275.947,55.177c0-2.007,1.434-4.186,7.512-7.4-2.064,3.9-4.759,8.372-6.6,8.372a.858.858,0,0,1-.917-.975M185.452,38.6c0-2.694,2.866-7.225,6.881-10.035a9.162,9.162,0,0,0-1.32,4.588,4.1,4.1,0,0,0,.229,1.491c-1.434,2.58-3.612,4.931-4.931,4.931-.574,0-.86-.286-.86-.975m79.885-3.785c1.606-3.727,5.791-7.4,6.824-7.4.4,0,.745.171.745.86a8.82,8.82,0,0,1-2.122,3.555c-1.376,1.605-2.868,3.326-4.186,3.326a2.315,2.315,0,0,1-1.261-.345m-38.653-8.774a.965.965,0,0,0,.688.8c-2.2,2.572-4.471,5.143-5.546,6.316-2.44,2.323-6.775,6.53-9.306,6.53a1.175,1.175,0,0,1-1.2-1.205c0-1.892,2.236-5.448,4.415-8.258,1.433-1.891,1.72-2.293,1.72-2.58a1.969,1.969,0,0,0-1.835-1.606c-1.262,0-1.548.115-5.333,5.678-2.007,2.925-5.676,7.741-6.881,7.741-.4,0-.515-.23-.515-.632,0-1.376,2.178-4.816,4.013-7.512,1.205-1.72,2.294-2.867,2.294-3.67a1.727,1.727,0,0,0-1.835-1.548c-.879,0-3.407,2.722-5.6,6.008a8.382,8.382,0,0,1-4.784,1.962,1.562,1.562,0,0,1-.919-.23A16.171,16.171,0,0,0,197.38,28c0-.86-.4-2.122-1.434-2.122a3.318,3.318,0,0,0-2.523-2.122c-2.984,0-13.076,9.061-13.076,16.343,0,3.326,1.836,4.817,4.016,4.817,3.383,0,7.167-3.21,9.748-7.282a5.867,5.867,0,0,0,2.007.287,9.469,9.469,0,0,0,2.746-.42,9.374,9.374,0,0,0-.738,3.23c0,1.719,1.719,4.472,3.555,4.472,1.205,0,3.383-1.892,5.963-5.5,0,3.211,1.55,5.217,3.442,5.217,3.594,0,9.241-5.048,11.962-8.413.007-.006.018-.01.024-.016,1.089-1.261,1.72-2.121,6.823-8.83,1.032.287,1.892.631,1.892,1.089,0,1.434-5.561,6.709-5.561,11.469a4.391,4.391,0,0,0,4.529,4.7c1.958,0,4.322-1.234,6.542-2.886.01,1.7.642,2.886,2.406,2.886.517,0,.975-.171,1.49-1.432A50.516,50.516,0,0,1,251.63,32.01a13.492,13.492,0,0,0-3.154,8.143c0,2.867,2.008,4.759,3.727,4.759,2.269,0,5.7-2.438,8.506-5.057.658,2.726,3.075,5.057,7.093,5.057,3.4,0,7.435-2.2,10.622-4.678.108,1.666,1.071,3.646,2.8,3.646,1.433,0,3.784-.917,6.078-3.384l-1.376,2.523c-10.609,4.874-14.393,9.748-14.393,15.082,0,2.581,1.491,4.415,3.784,4.415,2.81,0,6.594-2.122,10.322-9.117,1.663-3.154,2.868-5.907,4.014-8.544a3.465,3.465,0,0,0,2.064-2.809,1.042,1.042,0,0,0-.458-.918,70.62,70.62,0,0,1,4.186-7.627c3.612-5.62,5.848-7.225,5.848-8.085A2.332,2.332,0,0,0,299,23.122c-1.491,0-2.007.745-5.161,5.562-3.384,5.1-7.8,9.863-9.117,9.863a.559.559,0,0,1-.574-.63c0-1.549,3.384-6.825,5.85-9.634,1.032-1.2,1.719-1.778,1.719-2.523,0-1.147-1.376-2.122-2.58-2.122-1.046,0-5.277,4.89-8.1,9.615-2.669,2.556-7.61,7.3-12.429,7.3-2.237,0-3.843-1.147-3.843-3.268a4.663,4.663,0,0,0,2.409.573c3.9,0,10.035-7.225,10.035-11.067a3.3,3.3,0,0,0-3.1-3.384c-3.94,0-10.388,5.357-12.716,10.953-2.482,2.333-5.905,5.332-8.044,5.332-.688,0-1.089-.689-1.089-1.549,0-3.727,6.825-9.576,6.825-12.271a1.83,1.83,0,0,0-1.549-1.72c-1.548,0-4.817,3.211-12.041,11.067,4.071-7.4,5.16-8.085,5.16-8.888,0-.745-1.032-1.319-1.663-1.319-1.692,0-2.888,1.78-6.485,7.506-2.222,2.066-7.136,7.174-9.973,7.174-.917,0-1.547-.516-1.547-1.893,0-2.237,2.465-5.505,4.415-7.914,1.031-1.2,1.319-1.547,1.319-2.809,0-.689-.688-4.416-1.606-4.416-.688,0-1.777.287-2.523.287-.917,0-1.434-1.319-2.236-1.319-.63,0-3.671,3.039-3.671,4.415" transform="translate(-180.347 -21.631)" fill="currentColor"></path></clipPath></defs><g transform="translate(0 0.402)"><g clip-path="url(#lc1)"><rect width="33.947" height="40.542" fill="currentColor"></rect></g></g><g transform="translate(27.126 5.334)"><g clip-path="url(#lc2)"><rect width="64.744" height="35.955" fill="currentColor"></rect></g></g><g transform="translate(97.148)"><g clip-path="url(#lc3)"><rect width="43.122" height="52.756" fill="currentColor"></rect></g></g><g transform="translate(134.823 16.172)"><g clip-path="url(#lc4)"><rect width="120.945" height="40.886" fill="currentColor"></rect></g></g></svg>
